<?xml version="1.0" encoding="iso-8859-1"?>
<!-- Generator: Adobe Illustrator 16.0.0, SVG Export Plug-In . SVG Version: 6.00 Build 0)  -->
<!DOCTYPE svg PUBLIC "-//W3C//DTD SVG 1.1//EN" "http://www.w3.org/Graphics/SVG/1.1/DTD/svg11.dtd">
<svg version="1.1" id="Capa_1" xmlns="http://www.w3.org/2000/svg" xmlns:xlink="http://www.w3.org/1999/xlink" x="0px" y="0px"
	 width="536.251px" height="536.251px" viewBox="0 0 536.251 536.251" style="enable-background:new 0 0 536.251 536.251;"
	 xml:space="preserve">
<g>
	<g>
		<path d="M524.776,323.41L268.501,67.135h-99.45c1.913,3.825,1.913,7.65,3.825,11.475c7.65,36.337,13.388,57.375,19.125,65.025l0,0
			c11.475,3.825,21.038,15.3,21.038,26.775c0,15.3-13.388,28.688-28.688,28.688c0,0,0,0-1.913,0l0,0
			c-36.337-1.913-51.638-30.6-66.938-107.1c-1.913-9.562-5.737-17.212-9.562-22.95c-15.3,3.825-28.688,19.125-28.688,36.337v153
			L333.526,514.66c15.3,15.3,40.162,15.3,53.55,0l137.7-137.7C540.076,363.572,540.076,338.71,524.776,323.41z"/>
		<path d="M134.626,88.172c15.3,78.413,26.775,95.625,57.375,95.625v-19.125c-19.125,0-24.862-9.562-40.163-80.325
			c-17.212-84.15-107.1-95.625-141.525-40.163C-16.461,88.172,12.226,162.76,58.126,162.76v-19.125
			c-30.6,0-49.725-57.375-30.6-89.888C54.301,13.585,121.238,21.235,134.626,88.172z"/>
	</g>
</g>
<g>
</g>
<g>
</g>
<g>
</g>
<g>
</g>
<g>
</g>
<g>
</g>
<g>
</g>
<g>
</g>
<g>
</g>
<g>
</g>
<g>
</g>
<g>
</g>
<g>
</g>
<g>
</g>
<g>
</g>
</svg>
